<?xml version="1.0" encoding="UTF-8"?>
<svg id="_レイヤー_2" data-name="レイヤー 2" xmlns="http://www.w3.org/2000/svg" viewBox="0 0 922.38 824.28">
  <defs>
    <style>
      .cls-1, .cls-2 {
        stroke: #fff;
        stroke-miterlimit: 10;
        stroke-width: .5px;
      }

      .cls-1, .cls-3 {
        fill: #fff;
      }

      .cls-2 {
        fill: none;
      }
    </style>
  </defs>
  <g id="_レイヤー_1-2" data-name="レイヤー 1">
    <circle class="cls-3" cx="101.43" cy="821.45" r="2.83"/>
    <circle class="cls-3" cx="181.06" cy="560.98" r="2.83"/>
    <line class="cls-2" x1="181.06" y1="560.98" x2="101.43" y2="821.45"/>
    <circle class="cls-3" cx="169.57" cy="431.15" r="2.83"/>
    <line class="cls-2" x1="169.57" y1="431.15" x2="181.06" y2="559.98"/>
    <circle class="cls-3" cx="244.75" cy="296.43" r="3.54"/>
    <line class="cls-1" x1="244.75" y1="296.43" x2="170.64" y2="429.96"/>
    <circle class="cls-3" cx="3.54" cy="300.56" r="3.54"/>
    <line class="cls-1" x1="3.54" y1="300.56" x2="242.84" y2="296.43"/>
    <circle class="cls-3" cx="255.06" cy="154.03" r="3.54"/>
    <line class="cls-1" x1="255.06" y1="154.03" x2="5.29" y2="299.04"/>
    <circle class="cls-3" cx="696.01" cy="267.08" r="2.83"/>
    <line class="cls-1" x1="695.02" y1="267.08" x2="256.75" y2="154.03"/>
    <circle class="cls-3" cx="609.94" cy="182.94" r="3.54"/>
    <line class="cls-1" x1="611.28" y1="182.94" x2="694.43" y2="265.6"/>
    <circle class="cls-3" cx="628.84" cy="82.56" r="2.83"/>
    <line class="cls-1" x1="628.84" y1="82.56" x2="609.94" y2="180.74"/>
    <circle class="cls-3" cx="778.26" cy="2.83" r="2.83"/>
    <line class="cls-1" x1="630.07" y1="81.59" x2="776.96" y2="3.71"/>
    <circle class="cls-3" cx="826.6" cy="62.69" r="2.83"/>
    <circle class="cls-3" cx="919.54" cy="76.94" r="2.83"/>
    <line class="cls-1" x1="827.76" y1="62.69" x2="919.54" y2="76.94"/>
    <line class="cls-1" x1="778.96" y1="3.71" x2="824.93" y2="61.8"/>
    <circle class="cls-3" cx="692.41" cy="400.11" r="3.54"/>
    <line class="cls-1" x1="692.41" y1="398.69" x2="696.01" y2="268.19"/>
    <line class="cls-1" x1="246.15" y1="296.43" x2="692.41" y2="400.11"/>
    <circle class="cls-3" cx="523.91" cy="477.69" r="3.54"/>
    <circle class="cls-3" cx="696.01" cy="457.05" r="3.54"/>
    <circle class="cls-3" cx="882.43" cy="453.51" r="3.54"/>
    <line class="cls-1" x1="523.91" y1="477.69" x2="692.41" y2="401.32"/>
    <line class="cls-1" x1="696.01" y1="457.05" x2="525.64" y2="477.69"/>
    <line class="cls-1" x1="697.48" y1="457.05" x2="882.43" y2="453.51"/>
  </g>
</svg>