<?xml version="1.0" encoding="UTF-8"?>
<svg id="_レイヤー_2" data-name="レイヤー 2" xmlns="http://www.w3.org/2000/svg" viewBox="0 0 981.79 943.44">
  <defs>
    <style>
      .cls-1 {
        fill: none;
        stroke: #fff;
        stroke-miterlimit: 10;
        stroke-width: .5px;
      }

      .cls-2 {
        fill: #fff;
      }
    </style>
  </defs>
  <g id="_レイヤー_1-2" data-name="レイヤー 1">
    <circle class="cls-2" cx="647.3" cy="2.83" r="2.83"/>
    <circle class="cls-2" cx="570.17" cy="36.76" r="2.83"/>
    <circle class="cls-2" cx="558.7" cy="110.71" r="2.83"/>
    <line class="cls-1" x1="647.3" y1="2.83" x2="570.17" y2="36.76"/>
    <line class="cls-1" x1="558.7" y1="109.52" x2="570.17" y2="37.98"/>
    <circle class="cls-2" cx="519.76" cy="190.2" r="2.83"/>
    <circle class="cls-2" cx="343.19" cy="240.91" r="2.83"/>
    <circle class="cls-2" cx="182.48" cy="320.62" r="2.83"/>
    <circle class="cls-2" cx="2.83" cy="396.16" r="2.83"/>
    <circle class="cls-2" cx="150.24" cy="411.08" r="2.83"/>
    <circle class="cls-2" cx="218.62" cy="437.03" r="2.83"/>
    <circle class="cls-2" cx="325.99" cy="463.1" r="2.83"/>
    <circle class="cls-2" cx="384.75" cy="491.69" r="2.83"/>
    <circle class="cls-2" cx="454.32" cy="544.24" r="2.83"/>
    <circle class="cls-2" cx="708.67" cy="711.58" r="2.83"/>
    <circle class="cls-2" cx="799.28" cy="796.19" r="2.83"/>
    <circle class="cls-2" cx="873.76" cy="814.09" r="2.83"/>
    <circle class="cls-2" cx="741.97" cy="874.63" r="2.83"/>
    <circle class="cls-2" cx="897.54" cy="914.07" r="2.83"/>
    <circle class="cls-2" cx="978.96" cy="940.61" r="2.83"/>
    <circle class="cls-2" cx="819.27" cy="931.27" r="2.83"/>
    <line class="cls-1" x1="978.96" y1="940.61" x2="897.54" y2="914.07"/>
    <line class="cls-1" x1="873.76" y1="814.09" x2="897.54" y2="911.24"/>
    <line class="cls-1" x1="819.27" y1="931.27" x2="896.67" y2="914.07"/>
    <line class="cls-1" x1="741.97" y1="873.72" x2="818.06" y2="931.27"/>
    <line class="cls-1" x1="741.34" y1="872.57" x2="708.67" y2="711.58"/>
    <line class="cls-1" x1="709.63" y1="712.19" x2="798.37" y2="796.19"/>
    <line class="cls-1" x1="800.7" y1="796.78" x2="872" y2="814.09"/>
    <line class="cls-1" x1="707.21" y1="710.71" x2="455.34" y2="544.9"/>
    <line class="cls-1" x1="453.16" y1="543.67" x2="385.76" y2="492.32"/>
    <line class="cls-1" x1="383.14" y1="490.5" x2="327.22" y2="463.49"/>
    <line class="cls-1" x1="324.24" y1="462.69" x2="219.66" y2="437.03"/>
    <line class="cls-1" x1="217.55" y1="437.03" x2="151.53" y2="411.99"/>
    <line class="cls-1" x1="149.35" y1="410.76" x2="3.44" y2="396.16"/>
    <line class="cls-1" x1="3.44" y1="395.22" x2="182.48" y2="320.62"/>
    <line class="cls-1" x1="183.93" y1="319.76" x2="342.18" y2="241.39"/>
    <line class="cls-1" x1="344.51" y1="240.91" x2="518.96" y2="190.62"/>
    <line class="cls-1" x1="520.56" y1="189.61" x2="558.4" y2="111.75"/>
  </g>
</svg>