<?xml version="1.0" encoding="UTF-8"?>
<svg id="_レイヤー_2" data-name="レイヤー 2" xmlns="http://www.w3.org/2000/svg" viewBox="0 0 630.58 703.01">
  <defs>
    <style>
      .cls-1 {
        fill: none;
        stroke: #fff;
        stroke-miterlimit: 10;
        stroke-width: .5px;
      }

      .cls-2 {
        fill: #fff;
      }
    </style>
  </defs>
  <g id="_レイヤー_1-2" data-name="レイヤー 1">
    <circle class="cls-2" cx="191.31" cy="2.83" r="2.83"/>
    <circle class="cls-2" cx="192.08" cy="16.1" r="2.83"/>
    <circle class="cls-2" cx="216.98" cy="30.65" r="2.83"/>
    <circle class="cls-2" cx="298.05" cy="100.8" r="2.83"/>
    <circle class="cls-2" cx="408.61" cy="237.12" r="2.83"/>
    <circle class="cls-2" cx="287" cy="255.54" r="2.83"/>
    <circle class="cls-2" cx="313.58" cy="311.88" r="2.83"/>
    <circle class="cls-2" cx="210.19" cy="590.48" r="2.83"/>
    <circle class="cls-2" cx="61.06" cy="640.2" r="2.83"/>
    <circle class="cls-2" cx="14.22" cy="473.69" r="2.83"/>
    <circle class="cls-2" cx="2.83" cy="239.72" r="2.83"/>
    <circle class="cls-2" cx="10.25" cy="458.04" r="2.83"/>
    <circle class="cls-2" cx="224.66" cy="690.62" r="2.83"/>
    <circle class="cls-2" cx="220.97" cy="700.17" r="2.83"/>
    <circle class="cls-2" cx="513.21" cy="201.83" r="2.83"/>
    <circle class="cls-2" cx="544.27" cy="318.28" r="2.83"/>
    <circle class="cls-2" cx="518.8" cy="433.97" r="3.54"/>
    <circle class="cls-2" cx="627.75" cy="341.76" r="2.83"/>
    <circle class="cls-2" cx="546.53" cy="498.91" r="2.83"/>
    <circle class="cls-2" cx="606.09" cy="95.26" r="2.83"/>
    <circle class="cls-2" cx="339.24" cy="83.53" r="2.83"/>
    <circle class="cls-2" cx="342.07" cy="72.93" r="2.83"/>
    <circle class="cls-2" cx="267.81" cy="83.53" r="3.54"/>
    <circle class="cls-2" cx="354.21" cy="219.43" r="3.54"/>
    <line class="cls-1" x1="14.22" y1="473.69" x2="61.06" y2="640.2"/>
    <line class="cls-2" x1="13.93" y1="470.87" x2="11.39" y2="459.29"/>
    <line class="cls-1" x1="11.69" y1="456.19" x2="2.83" y2="240.45"/>
    <line class="cls-1" x1="4.2" y1="239.72" x2="285.89" y2="255.54"/>
    <line class="cls-1" x1="287" y1="256.39" x2="313.58" y2="311"/>
    <line class="cls-1" x1="313.58" y1="312.88" x2="210.95" y2="589.55"/>
    <line class="cls-1" x1="210.19" y1="591.18" x2="224.66" y2="690.62"/>
    <line class="cls-1" x1="287.9" y1="255.54" x2="354.21" y2="219.43"/>
    <line class="cls-1" x1="353.05" y1="218.23" x2="298.57" y2="101.86"/>
    <line class="cls-1" x1="299.83" y1="100.1" x2="339.24" y2="84.04"/>
    <line class="cls-1" x1="297.06" y1="100.1" x2="268.32" y2="83.53"/>
    <line class="cls-1" x1="266.31" y1="82.53" x2="218.23" y2="31.44"/>
    <line class="cls-1" x1="216.1" y1="29.81" x2="191.31" y2="2.83"/>
    <line class="cls-1" x1="355.79" y1="220" x2="407.75" y2="237.12"/>
    <line class="cls-1" x1="409.86" y1="237.12" x2="512.15" y2="201.83"/>
    <line class="cls-1" x1="514.14" y1="201.11" x2="606.09" y2="95.26"/>
    <line class="cls-1" x1="514.14" y1="202.97" x2="543.72" y2="316.95"/>
    <line class="cls-1" x1="545.21" y1="318.28" x2="627.75" y2="341.76"/>
    <line class="cls-1" x1="544.27" y1="319.45" x2="518.8" y2="432.85"/>
    <line class="cls-1" x1="518.8" y1="434.63" x2="546.53" y2="498.91"/>
  </g>
</svg>