<?xml version="1.0" encoding="UTF-8"?>
<svg id="_レイヤー_2" data-name="レイヤー 2" xmlns="http://www.w3.org/2000/svg" viewBox="0 0 344.14 363.51">
  <defs>
    <style>
      .cls-1 {
        fill: none;
        stroke: #fff;
        stroke-miterlimit: 10;
        stroke-width: .5px;
      }

      .cls-2 {
        fill: #fff;
      }
    </style>
  </defs>
  <g id="_レイヤー_1-2" data-name="レイヤー 1">
    <circle class="cls-2" cx="321.11" cy="2.83" r="2.83"/>
    <circle class="cls-2" cx="264.88" cy="87.78" r="2.83"/>
    <circle class="cls-2" cx="341.3" cy="144.4" r="2.83"/>
    <circle class="cls-2" cx="338.47" cy="97.73" r="2.83"/>
    <circle class="cls-2" cx="335.63" cy="45.57" r="3.54"/>
    <circle class="cls-2" cx="236.45" cy="100.57" r="3.54"/>
    <polyline class="cls-1" points="321.11 2.83 335.63 45.57 338.47 97.73 341.3 144.4"/>
    <polyline class="cls-1" points="333.63 46.78 264.88 87.78 236.45 100.57"/>
    <circle class="cls-2" cx="215.33" cy="126.36" r="2.83"/>
    <circle class="cls-2" cx="173.84" cy="216.72" r="2.83"/>
    <line class="cls-1" x1="235.17" y1="101.46" x2="215.33" y2="126.36"/>
    <line class="cls-1" x1="214.68" y1="127.5" x2="173.84" y2="216.72"/>
    <circle class="cls-2" cx="172.2" cy="271.82" r="2.83"/>
    <circle class="cls-2" cx="169.37" cy="335.99" r="2.83"/>
    <circle class="cls-2" cx="122.81" cy="353.53" r="2.83"/>
    <circle class="cls-2" cx="55.3" cy="360.68" r="2.83"/>
    <circle class="cls-2" cx="18.63" cy="325.31" r="2.83"/>
    <circle class="cls-2" cx="28.83" cy="306.21" r="2.83"/>
    <circle class="cls-2" cx="49.63" cy="271.82" r="2.83"/>
    <circle class="cls-2" cx="58.13" cy="274.66" r="2.83"/>
    <circle class="cls-2" cx="2.83" cy="280.33" r="2.83"/>
    <polyline class="cls-1" points="173.84 218.38 172.2 272.29 169.37 335.99"/>
    <line class="cls-1" x1="168.49" y1="337.08" x2="122.81" y2="353.53"/>
    <line class="cls-1" x1="122" y1="354.11" x2="56.31" y2="360.68"/>
    <line class="cls-1" x1="53.77" y1="360" x2="19.34" y2="326.21"/>
    <line class="cls-1" x1="18.63" y1="324.85" x2="28.22" y2="307.09"/>
    <line class="cls-1" x1="48.97" y1="272.56" x2="29.49" y2="305.46"/>
    <line class="cls-1" x1="50.69" y1="271.82" x2="58.13" y2="274.66"/>
    <line class="cls-1" x1="47.7" y1="271.82" x2="2.83" y2="280.33"/>
  </g>
</svg>