<?xml version="1.0" encoding="UTF-8"?>
<svg id="_レイヤー_2" data-name="レイヤー 2" xmlns="http://www.w3.org/2000/svg" viewBox="0 0 831.84 741.76">
  <defs>
    <style>
      .cls-1 {
        fill: none;
        stroke: #fff;
        stroke-miterlimit: 10;
        stroke-width: .5px;
      }

      .cls-2 {
        fill: #fff;
      }
    </style>
  </defs>
  <g id="_レイヤー_1-2" data-name="レイヤー 1">
    <circle class="cls-2" cx="2.83" cy="192.16" r="2.83"/>
    <circle class="cls-2" cx="88.83" cy="3.54" r="3.54"/>
    <circle class="cls-2" cx="338.94" cy="162.47" r="2.83"/>
    <circle class="cls-2" cx="439.39" cy="180.07" r="2.83"/>
    <circle class="cls-2" cx="561.75" cy="182.9" r="2.83"/>
    <circle class="cls-2" cx="668.84" cy="122.33" r="2.83"/>
    <circle class="cls-2" cx="782.99" cy="408.79" r="2.83"/>
    <circle class="cls-2" cx="812.71" cy="490.16" r="2.83"/>
    <circle class="cls-2" cx="829" cy="507.78" r="2.83"/>
    <circle class="cls-2" cx="584" cy="598.72" r="2.83"/>
    <circle class="cls-2" cx="760.14" cy="738.93" r="2.83"/>
    <circle class="cls-2" cx="419.92" cy="260.68" r="2.83"/>
    <circle class="cls-2" cx="454.25" cy="302.66" r="2.83"/>
    <circle class="cls-2" cx="473.38" cy="350.75" r="2.83"/>
    <circle class="cls-2" cx="595.8" cy="429.44" r="2.83"/>
    <circle class="cls-2" cx="360.06" cy="432.27" r="2.83"/>
    <circle class="cls-2" cx="375.36" cy="493" r="2.83"/>
    <circle class="cls-2" cx="503.08" cy="524.36" r="2.83"/>
    <circle class="cls-2" cx="419.92" cy="346.55" r="2.83"/>
    <circle class="cls-2" cx="375.36" cy="330.67" r="3.54"/>
    <line class="cls-1" x1="584" y1="598.72" x2="760.14" y2="738.93"/>
    <polyline class="cls-1" points="585.21 597.19 829 507.78 827.51 505.37 812.71 490.16"/>
    <line class="cls-1" x1="811.21" y1="487.75" x2="783.56" y2="409.54"/>
    <line class="cls-1" x1="782.99" y1="407.16" x2="669.78" y2="121.75"/>
    <line class="cls-1" x1="668.08" y1="122.33" x2="562.57" y2="182.9"/>
    <line class="cls-1" x1="560.42" y1="182.9" x2="440.87" y2="180.07"/>
    <line class="cls-1" x1="439.39" y1="179.6" x2="419.92" y2="260.68"/>
    <line class="cls-1" x1="418.45" y1="259.87" x2="339.99" y2="163.07"/>
    <line class="cls-1" x1="337.62" y1="161.26" x2="88.21" y2="2.88"/>
    <line class="cls-1" x1="420.8" y1="261.63" x2="453.37" y2="302.01"/>
    <line class="cls-1" x1="454.58" y1="303.72" x2="473.38" y2="349.64"/>
    <line class="cls-1" x1="473.82" y1="351.71" x2="594.96" y2="428.51"/>
    <line class="cls-1" x1="596.46" y1="429.94" x2="827.31" y2="507.18"/>
    <line class="cls-1" x1="594.46" y1="429.94" x2="361.35" y2="431.63"/>
    <line class="cls-1" x1="360.06" y1="432.27" x2="374.46" y2="492.08"/>
    <line class="cls-1" x1="375.84" y1="493" x2="503.08" y2="524.36"/>
    <line class="cls-1" x1="471.91" y1="350.75" x2="421.66" y2="346.55"/>
    <line class="cls-1" x1="418.67" y1="345.81" x2="377.53" y2="331.5"/>
    <line class="cls-1" x1="373.63" y1="330.67" x2="3.54" y2="192.16"/>
  </g>
</svg>